solid OpenSCAD_Model
  facet normal 1 -0 0
    outer loop
      vertex 12 125 15
      vertex 12 134 4.5
      vertex 12 134 15
    endloop
  endfacet
  facet normal 1 0 0
    outer loop
      vertex 12 134 4.5
      vertex 12 125 15
      vertex 12 125 4.5
    endloop
  endfacet
  facet normal 0 0 -1
    outer loop
      vertex 12 125 15
      vertex 228 134 15
      vertex 228 125 15
    endloop
  endfacet
  facet normal -0 0 -1
    outer loop
      vertex 228 134 15
      vertex 12 125 15
      vertex 12 134 15
    endloop
  endfacet
  facet normal -1 0 0
    outer loop
      vertex 228 125 10.5
      vertex 228 134 15
      vertex 228 134 10.5
    endloop
  endfacet
  facet normal -1 -0 0
    outer loop
      vertex 228 134 15
      vertex 228 125 10.5
      vertex 228 125 15
    endloop
  endfacet
  facet normal -1 0 0
    outer loop
      vertex 228 125 4.5
      vertex 228 134 7
      vertex 228 134 4.5
    endloop
  endfacet
  facet normal -1 -0 0
    outer loop
      vertex 228 134 7
      vertex 228 125 4.5
      vertex 228 125 7
    endloop
  endfacet
  facet normal -0 0 1
    outer loop
      vertex 12 134 4.5
      vertex 228 125 4.5
      vertex 228 134 4.5
    endloop
  endfacet
  facet normal 0 0 1
    outer loop
      vertex 228 125 4.5
      vertex 12 134 4.5
      vertex 12 125 4.5
    endloop
  endfacet
  facet normal 0 -1 0
    outer loop
      vertex 12 134 15
      vertex 228 134 10.5
      vertex 228 134 15
    endloop
  endfacet
  facet normal 0 -1 0
    outer loop
      vertex 228 134 10.5
      vertex 228 134 7
      vertex 228.9 134 10.5
    endloop
  endfacet
  facet normal 0 -1 0
    outer loop
      vertex 12 134 15
      vertex 228 134 7
      vertex 228 134 10.5
    endloop
  endfacet
  facet normal 0 -1 0
    outer loop
      vertex 12 134 4.5
      vertex 228 134 7
      vertex 12 134 15
    endloop
  endfacet
  facet normal 0 -1 -0
    outer loop
      vertex 228 134 7
      vertex 12 134 4.5
      vertex 228 134 4.5
    endloop
  endfacet
  facet normal 0 -1 -0
    outer loop
      vertex 228.9 134 10.5
      vertex 228 134 7
      vertex 228.9 134 7
    endloop
  endfacet
  facet normal 0 0 -1
    outer loop
      vertex 228 125 10.5
      vertex 228.9 134 10.5
      vertex 228.9 125 10.5
    endloop
  endfacet
  facet normal -0 0 -1
    outer loop
      vertex 228.9 134 10.5
      vertex 228 125 10.5
      vertex 228 134 10.5
    endloop
  endfacet
  facet normal -1 0 0
    outer loop
      vertex 228.9 125 7
      vertex 228.9 134 10.5
      vertex 228.9 134 7
    endloop
  endfacet
  facet normal -1 -0 0
    outer loop
      vertex 228.9 134 10.5
      vertex 228.9 125 7
      vertex 228.9 125 10.5
    endloop
  endfacet
  facet normal -0 0 1
    outer loop
      vertex 228 134 7
      vertex 228.9 125 7
      vertex 228.9 134 7
    endloop
  endfacet
  facet normal 0 0 1
    outer loop
      vertex 228.9 125 7
      vertex 228 134 7
      vertex 228 125 7
    endloop
  endfacet
  facet normal 0 -1 0
    outer loop
      vertex 228 125 4.5
      vertex 228.9 125 7
      vertex 228 125 7
    endloop
  endfacet
  facet normal 0 -1 0
    outer loop
      vertex 240 125 0
      vertex 231 125 5
      vertex 228 125 4.5
    endloop
  endfacet
  facet normal 0 -1 -0
    outer loop
      vertex 228.9 125 7
      vertex 228 125 4.5
      vertex 231 125 5
    endloop
  endfacet
  facet normal 0 -1 0
    outer loop
      vertex 228.9 125 7
      vertex 231 125 10
      vertex 228.9 125 10.5
    endloop
  endfacet
  facet normal 0 -1 -0
    outer loop
      vertex 231 125 10
      vertex 228.9 125 7
      vertex 231 125 5
    endloop
  endfacet
  facet normal 0 -1 0
    outer loop
      vertex 0 125 16.5
      vertex 12 125 15
      vertex 240 125 16.5
    endloop
  endfacet
  facet normal 0 -1 0
    outer loop
      vertex 8 125 10
      vertex 0 125 16.5
      vertex 3 125 10
    endloop
  endfacet
  facet normal 0 -1 0
    outer loop
      vertex 0 125 0
      vertex 3 125 10
      vertex 0 125 16.5
    endloop
  endfacet
  facet normal 0 -1 0
    outer loop
      vertex 0 125 0
      vertex 8 125 5
      vertex 3 125 5
    endloop
  endfacet
  facet normal 0 -1 -0
    outer loop
      vertex 12 125 4.5
      vertex 0 125 0
      vertex 228 125 4.5
    endloop
  endfacet
  facet normal 0 -1 -0
    outer loop
      vertex 8 125 5
      vertex 0 125 0
      vertex 12 125 4.5
    endloop
  endfacet
  facet normal 0 -1 -0
    outer loop
      vertex 3 125 10
      vertex 0 125 0
      vertex 3 125 5
    endloop
  endfacet
  facet normal 0 -1 0
    outer loop
      vertex 228 125 15
      vertex 240 125 16.5
      vertex 12 125 15
    endloop
  endfacet
  facet normal 0 -1 0
    outer loop
      vertex 228.9 125 10.5
      vertex 228 125 15
      vertex 228 125 10.5
    endloop
  endfacet
  facet normal 0 -1 0
    outer loop
      vertex 231 125 10
      vertex 228 125 15
      vertex 228.9 125 10.5
    endloop
  endfacet
  facet normal 0 -1 0
    outer loop
      vertex 236 125 10
      vertex 228 125 15
      vertex 231 125 10
    endloop
  endfacet
  facet normal 0 -1 0
    outer loop
      vertex 228 125 15
      vertex 236 125 10
      vertex 240 125 16.5
    endloop
  endfacet
  facet normal 0 -1 0
    outer loop
      vertex 240 125 0
      vertex 236 125 10
      vertex 236 125 5
    endloop
  endfacet
  facet normal 0 -1 0
    outer loop
      vertex 236 125 10
      vertex 240 125 0
      vertex 240 125 16.5
    endloop
  endfacet
  facet normal 0 -1 0
    outer loop
      vertex 231 125 5
      vertex 240 125 0
      vertex 236 125 5
    endloop
  endfacet
  facet normal 0 -1 0
    outer loop
      vertex 240 125 0
      vertex 228 125 4.5
      vertex 0 125 0
    endloop
  endfacet
  facet normal 0 -1 0
    outer loop
      vertex 0 125 16.5
      vertex 8 125 10
      vertex 12 125 15
    endloop
  endfacet
  facet normal 0 -1 0
    outer loop
      vertex 12 125 4.5
      vertex 8 125 10
      vertex 8 125 5
    endloop
  endfacet
  facet normal 0 -1 0
    outer loop
      vertex 8 125 10
      vertex 12 125 4.5
      vertex 12 125 15
    endloop
  endfacet
  facet normal 1 -0 0
    outer loop
      vertex 3 125 10
      vertex 3 130 5
      vertex 3 130 10
    endloop
  endfacet
  facet normal 1 0 0
    outer loop
      vertex 3 130 5
      vertex 3 125 10
      vertex 3 125 5
    endloop
  endfacet
  facet normal 0 0 -1
    outer loop
      vertex 3 125 10
      vertex 8 130 10
      vertex 8 125 10
    endloop
  endfacet
  facet normal -0 0 -1
    outer loop
      vertex 8 130 10
      vertex 3 125 10
      vertex 3 130 10
    endloop
  endfacet
  facet normal -1 0 0
    outer loop
      vertex 8 125 5
      vertex 8 130 10
      vertex 8 130 5
    endloop
  endfacet
  facet normal -1 -0 0
    outer loop
      vertex 8 130 10
      vertex 8 125 5
      vertex 8 125 10
    endloop
  endfacet
  facet normal -0 0 1
    outer loop
      vertex 3 130 5
      vertex 8 125 5
      vertex 8 130 5
    endloop
  endfacet
  facet normal 0 0 1
    outer loop
      vertex 8 125 5
      vertex 3 130 5
      vertex 3 125 5
    endloop
  endfacet
  facet normal 0 -1 0
    outer loop
      vertex 3 130 5
      vertex 8 130 10
      vertex 3 130 10
    endloop
  endfacet
  facet normal 0 -1 -0
    outer loop
      vertex 8 130 10
      vertex 3 130 5
      vertex 8 130 5
    endloop
  endfacet
  facet normal 1 -0 0
    outer loop
      vertex 231 125 10
      vertex 231 130 5
      vertex 231 130 10
    endloop
  endfacet
  facet normal 1 0 0
    outer loop
      vertex 231 130 5
      vertex 231 125 10
      vertex 231 125 5
    endloop
  endfacet
  facet normal 0 0 -1
    outer loop
      vertex 231 125 10
      vertex 236 130 10
      vertex 236 125 10
    endloop
  endfacet
  facet normal -0 0 -1
    outer loop
      vertex 236 130 10
      vertex 231 125 10
      vertex 231 130 10
    endloop
  endfacet
  facet normal -1 0 0
    outer loop
      vertex 236 125 5
      vertex 236 130 10
      vertex 236 130 5
    endloop
  endfacet
  facet normal -1 -0 0
    outer loop
      vertex 236 130 10
      vertex 236 125 5
      vertex 236 125 10
    endloop
  endfacet
  facet normal 0 -1 0
    outer loop
      vertex 231 130 5
      vertex 236 130 10
      vertex 231 130 10
    endloop
  endfacet
  facet normal 0 -1 -0
    outer loop
      vertex 236 130 10
      vertex 231 130 5
      vertex 236 130 5
    endloop
  endfacet
  facet normal -0 0 1
    outer loop
      vertex 231 130 5
      vertex 236 125 5
      vertex 236 130 5
    endloop
  endfacet
  facet normal 0 0 1
    outer loop
      vertex 236 125 5
      vertex 231 130 5
      vertex 231 125 5
    endloop
  endfacet
  facet normal 0 0 -1
    outer loop
      vertex 240 125 0
      vertex 233 137 0
      vertex 240 130 0
    endloop
  endfacet
  facet normal 0 0 -1
    outer loop
      vertex 240 125 0
      vertex 7 137 0
      vertex 233 137 0
    endloop
  endfacet
  facet normal 0 0 -1
    outer loop
      vertex 0 125 0
      vertex 7 137 0
      vertex 240 125 0
    endloop
  endfacet
  facet normal 0 0 -1
    outer loop
      vertex 7 137 0
      vertex 0 125 0
      vertex 0 130 0
    endloop
  endfacet
  facet normal -0.707107 0.707107 0
    outer loop
      vertex 0 130 0
      vertex 7 137 16.5
      vertex 7 137 0
    endloop
  endfacet
  facet normal -0.707107 0.707107 0
    outer loop
      vertex 7 137 16.5
      vertex 0 130 0
      vertex 0 130 16.5
    endloop
  endfacet
  facet normal 0.707107 0.707107 0
    outer loop
      vertex 240 130 16.5
      vertex 233 137 0
      vertex 233 137 16.5
    endloop
  endfacet
  facet normal 0.707107 0.707107 0
    outer loop
      vertex 233 137 0
      vertex 240 130 16.5
      vertex 240 130 0
    endloop
  endfacet
  facet normal -1 0 0
    outer loop
      vertex 0 125 0
      vertex 0 130 16.5
      vertex 0 130 0
    endloop
  endfacet
  facet normal -1 -0 0
    outer loop
      vertex 0 130 16.5
      vertex 0 125 0
      vertex 0 125 16.5
    endloop
  endfacet
  facet normal 0 0 1
    outer loop
      vertex 233 137 16.5
      vertex 240 125 16.5
      vertex 240 130 16.5
    endloop
  endfacet
  facet normal -0 0 1
    outer loop
      vertex 7 137 16.5
      vertex 240 125 16.5
      vertex 233 137 16.5
    endloop
  endfacet
  facet normal 0 0 1
    outer loop
      vertex 0 125 16.5
      vertex 7 137 16.5
      vertex 0 130 16.5
    endloop
  endfacet
  facet normal 0 0 1
    outer loop
      vertex 7 137 16.5
      vertex 0 125 16.5
      vertex 240 125 16.5
    endloop
  endfacet
  facet normal 1 -0 0
    outer loop
      vertex 240 125 16.5
      vertex 240 130 0
      vertex 240 130 16.5
    endloop
  endfacet
  facet normal 1 0 0
    outer loop
      vertex 240 130 0
      vertex 240 125 16.5
      vertex 240 125 0
    endloop
  endfacet
  facet normal 0 1 -0
    outer loop
      vertex 233 137 0
      vertex 7 137 16.5
      vertex 233 137 16.5
    endloop
  endfacet
  facet normal 0 1 0
    outer loop
      vertex 7 137 16.5
      vertex 233 137 0
      vertex 7 137 0
    endloop
  endfacet
endsolid OpenSCAD_Model
