solid OpenSCAD_Model
  facet normal -1 0 0
    outer loop
      vertex 0 0 0
      vertex 0 6 3
      vertex 0 6 0
    endloop
  endfacet
  facet normal -1 -0 0
    outer loop
      vertex 0 6 3
      vertex 0 0 0
      vertex 0 0 3
    endloop
  endfacet
  facet normal 0 0 1
    outer loop
      vertex 14 6 3
      vertex 13 5 3
      vertex 14 0 3
    endloop
  endfacet
  facet normal 0 0 1
    outer loop
      vertex 14 6 3
      vertex 1 5 3
      vertex 13 5 3
    endloop
  endfacet
  facet normal 0 0 1
    outer loop
      vertex 1 5 3
      vertex 0 6 3
      vertex 1 1 3
    endloop
  endfacet
  facet normal -0 0 1
    outer loop
      vertex 0 6 3
      vertex 1 5 3
      vertex 14 6 3
    endloop
  endfacet
  facet normal -0 0 1
    outer loop
      vertex 13 1 3
      vertex 14 0 3
      vertex 13 5 3
    endloop
  endfacet
  facet normal -0 0 1
    outer loop
      vertex 1 1 3
      vertex 14 0 3
      vertex 13 1 3
    endloop
  endfacet
  facet normal 0 0 1
    outer loop
      vertex 1 1 3
      vertex 0 0 3
      vertex 14 0 3
    endloop
  endfacet
  facet normal 0 0 1
    outer loop
      vertex 0 0 3
      vertex 1 1 3
      vertex 0 6 3
    endloop
  endfacet
  facet normal 1 -0 0
    outer loop
      vertex 14 0 3
      vertex 14 6 0
      vertex 14 6 3
    endloop
  endfacet
  facet normal 1 0 0
    outer loop
      vertex 14 6 0
      vertex 14 0 3
      vertex 14 0 0
    endloop
  endfacet
  facet normal 0 1 -0
    outer loop
      vertex 14 6 0
      vertex 0 6 3
      vertex 14 6 3
    endloop
  endfacet
  facet normal 0 1 0
    outer loop
      vertex 0 6 3
      vertex 14 6 0
      vertex 0 6 0
    endloop
  endfacet
  facet normal 0 0 -1
    outer loop
      vertex 0 0 0
      vertex 14 6 0
      vertex 14 0 0
    endloop
  endfacet
  facet normal -0 0 -1
    outer loop
      vertex 14 6 0
      vertex 0 0 0
      vertex 0 6 0
    endloop
  endfacet
  facet normal 0 -1 0
    outer loop
      vertex 0 0 0
      vertex 14 0 3
      vertex 0 0 3
    endloop
  endfacet
  facet normal 0 -1 -0
    outer loop
      vertex 14 0 3
      vertex 0 0 0
      vertex 14 0 0
    endloop
  endfacet
  facet normal -1 0 0
    outer loop
      vertex 1 1 3
      vertex 1 5 20
      vertex 1 5 3
    endloop
  endfacet
  facet normal -1 -0 0
    outer loop
      vertex 1 5 20
      vertex 1 1 3
      vertex 1 1 20
    endloop
  endfacet
  facet normal -0 0 1
    outer loop
      vertex 1 5 20
      vertex 13 1 20
      vertex 13 5 20
    endloop
  endfacet
  facet normal 0 0 1
    outer loop
      vertex 13 1 20
      vertex 1 5 20
      vertex 1 1 20
    endloop
  endfacet
  facet normal 1 -0 0
    outer loop
      vertex 13 1 20
      vertex 13 5 3
      vertex 13 5 20
    endloop
  endfacet
  facet normal 1 0 0
    outer loop
      vertex 13 5 3
      vertex 13 1 20
      vertex 13 1 3
    endloop
  endfacet
  facet normal 0 1 -0
    outer loop
      vertex 13 5 3
      vertex 1 5 20
      vertex 13 5 20
    endloop
  endfacet
  facet normal 0 1 0
    outer loop
      vertex 1 5 20
      vertex 13 5 3
      vertex 1 5 3
    endloop
  endfacet
  facet normal 0 -1 0
    outer loop
      vertex 1 1 3
      vertex 13 1 20
      vertex 1 1 20
    endloop
  endfacet
  facet normal 0 -1 -0
    outer loop
      vertex 13 1 20
      vertex 1 1 3
      vertex 13 1 3
    endloop
  endfacet
endsolid OpenSCAD_Model
